<?xml version="1.0" encoding="UTF-8"?>
<svg version="1.1" xmlns="http://www.w3.org/2000/svg" width="247" height="162">
<path d="M0 0 C11.07665933 8.77103738 16.3075873 20.11003087 18.796875 33.78515625 C22.00500952 63.78121405 13.95389898 91.76507716 -4.8125 115.4375 C-7.71715603 118.86611325 -10.7328402 122.16604644 -13.8125 125.4375 C-14.41320312 126.11425781 -15.01390625 126.79101562 -15.6328125 127.48828125 C-29.7248353 142.70888596 -52.1644906 153.50497639 -72.76953125 154.59375 C-81.31312153 154.83245334 -89.17069936 154.11551097 -96.5 149.375 C-99.02110085 146.17252055 -99.11843204 145.96081045 -98.6953125 142.203125 C-97.7842282 135.07326347 -95.87519276 128.17345382 -94 121.25 C-93.80442505 120.52018921 -93.6088501 119.79037842 -93.40734863 119.03845215 C-86.73369478 94.1843377 -79.01364964 69.62467105 -70.8302002 45.22937012 C-70.28617943 43.60466702 -69.74607463 41.97864625 -69.21032715 40.35119629 C-61.34235739 16.53271735 -61.34235739 16.53271735 -53.8125 10.625 C-50.06911979 9.14324533 -47.68249661 9.50870081 -43.8125 10.4375 C-42.44216898 14.14026327 -43.20001154 16.14743293 -44.69921875 19.72265625 C-45.13693604 20.79209473 -45.57465332 21.8615332 -46.02563477 22.96337891 C-46.51217529 24.13046387 -46.99871582 25.29754883 -47.5 26.5 C-48.53442708 29.04643134 -49.55463562 31.59838133 -50.5703125 34.15234375 C-50.83677078 34.82213257 -51.10322906 35.49192139 -51.37776184 36.18200684 C-65.49843914 71.95252022 -75.51037537 109.18136806 -84.8125 146.4375 C-73.57602507 150.18299164 -60.9056693 145.37281106 -50.8125 140.4375 C-42.90288878 136.0985751 -36.23552906 130.74527079 -29.8125 124.4375 C-28.70455078 123.36628906 -28.70455078 123.36628906 -27.57421875 122.2734375 C-8.36209348 102.41294566 2.30791817 73.65426618 2.4375 46.3125 C2.458125 45.24773438 2.47875 44.18296875 2.5 43.0859375 C2.56119663 30.47943273 0.00473904 18.93071 -8.6640625 9.40234375 C-18.18036888 0.47369773 -28.77636878 -1.05705953 -41.37890625 -0.83984375 C-53.51379798 -0.31609171 -64.81942248 4.9495627 -73.1875 13.6875 C-80.81160492 22.89803483 -81.89580502 32.83727641 -81.8125 44.4375 C-85.64723284 44.79421933 -87.36592875 44.73521416 -90.625 42.5625 C-93.94670746 39.33569847 -94.01596098 37.34622757 -94.125 32.8125 C-93.98676131 23.13579156 -89.86617799 17.76738633 -83.36328125 10.828125 C-62.73412633 -8.50578436 -24.35228936 -16.0916756 0 0 Z " fill="#FFFFFF" transform="translate(98.8125,7.5625)"/>
<path d="M0 0 C1.08603516 -0.020625 2.17207031 -0.04125 3.29101562 -0.0625 C16.23336912 -0.12468548 27.52488665 3.74486216 37.1875 12.53515625 C49.49049879 25.51836891 51.43307043 43.27780439 51.05859375 60.37890625 C49.87573759 90.13862558 35.35633182 117.12240633 14.00390625 137.3984375 C-2.91792495 152.84857741 -24.72825573 162.70226134 -47.86328125 162.46484375 C-54.01412407 162.06731572 -59.66565556 160.55684664 -64.875 157.1875 C-67.1875 154.25 -67.1875 154.25 -67.29345703 152.18432617 C-66.49597716 145.50798831 -65.10366942 139.11959457 -63.375 132.625 C-63.07295654 131.47894287 -62.77091309 130.33288574 -62.4597168 129.15209961 C-56.02257436 105.13594095 -48.66140451 81.35989133 -40.875 57.75 C-40.63850739 57.02571808 -40.40201477 56.30143616 -40.15835571 55.5552063 C-37.61047336 47.77768879 -34.84962019 40.12687796 -31.64453125 32.59375 C-31.23964729 31.61976257 -31.23964729 31.61976257 -30.82658386 30.62609863 C-28.59293941 25.52856323 -25.76889907 21.22907262 -21.3125 17.8125 C-18.12836771 16.96964145 -15.37917248 17.63621683 -12.1875 18.25 C-10.99626306 21.6734123 -11.34630933 23.38100443 -12.78515625 26.66796875 C-13.16720215 27.57023193 -13.54924805 28.47249512 -13.94287109 29.40209961 C-14.5898999 30.9046228 -14.5898999 30.9046228 -15.25 32.4375 C-31.48414696 71.71149022 -43.4339743 112.92585165 -53.1875 154.25 C-41.9432162 157.9980946 -29.29043396 153.1766583 -19.1875 148.25 C4.04894075 135.76815314 20.66185992 112.38657687 28.52734375 87.57421875 C28.9605948 86.13426751 29.38901481 84.69285354 29.8125 83.25 C30.02277832 82.55213379 30.23305664 81.85426758 30.44970703 81.13525391 C33.19456022 71.71842979 34.17885001 62.6168167 34.25 52.8125 C34.26015137 51.83015381 34.27030273 50.84780762 34.28076172 49.83569336 C34.13751489 37.87660083 30.86059292 25.49047135 22.6875 16.4375 C13.56032405 7.97084336 2.10855773 6.76819629 -9.75390625 6.97265625 C-21.90525693 7.49711867 -33.23430415 12.75884546 -41.5625 21.5625 C-49.37327233 31.04588217 -50.1875 40.21807788 -50.1875 52.25 C-53.72057768 52.57865839 -55.76340364 52.47168673 -58.9375 50.8125 C-62.11111876 47.19810086 -63.00023665 44.02896076 -63.1875 39.25 C-61.93466901 29.13220038 -55.29025896 21.34743492 -47.66796875 15.0078125 C-33.23141104 4.77718105 -17.58192795 0.08201482 0 0 Z " fill="#FFFFFF" transform="translate(196.1875,-0.25)"/>
</svg>
